<svg width="77" height="70" viewBox="0 0 77 70" fill="none" xmlns="http://www.w3.org/2000/svg">
<path fill-rule="evenodd" clip-rule="evenodd" d="M2.36357 2.00426C0.932776 3.42778 0.737221 6.56501 0.737221 28.1036C0.737221 58.4451 -0.606112 56.1236 16.9516 56.1236C27.1047 56.1236 29.2352 55.898 29.2352 54.8231C29.2352 53.7596 26.9504 53.4774 16.7059 53.2748L4.17663 53.0271L3.91228 32.8996L3.64794 12.7722H33.6386H63.6292V29.5819C63.6292 38.8273 63.2971 46.3775 62.8922 46.3607C62.4863 46.343 61.0496 45.76 59.6985 45.0646C55.1447 42.7209 54.4539 43.2482 55.068 48.6035L55.6252 53.4694H47.8355C41.5659 53.4694 40.0447 53.7287 40.0447 54.7965C40.0447 55.8653 41.5718 56.1236 47.8944 56.1236H55.7441L56.377 59.6819C57.1248 63.8977 58.2323 64.7541 60.5219 62.8882C62.0707 61.6266 62.4264 61.8318 64.9725 65.4556C66.4947 67.6223 68.2105 69.3944 68.7854 69.3944C69.3612 69.3944 71.3295 68.3655 73.1623 67.1074L76.4926 64.8195L73.8698 60.7896C71.53 57.1959 71.419 56.6721 72.8419 55.9555C75.4676 54.6328 74.6717 52.8156 70.5532 50.7321L66.6687 48.7662L66.3768 25.8307C66.1036 4.31339 65.968 2.81732 64.1785 1.64064C62.6337 0.624099 56.7327 0.386108 33.1305 0.386108C6.1479 0.386108 3.86905 0.505546 2.36357 2.00426ZM62.6013 4.3187C63.2499 5.02205 63.6351 6.51458 63.4592 7.6364L63.1379 9.67569L33.4116 9.91014L3.68528 10.1437V7.18166C3.68528 5.55289 3.98009 3.95419 4.34074 3.63038C4.7004 3.30569 17.6915 3.04027 33.2091 3.04027C56.6118 3.04027 61.6245 3.25792 62.6013 4.3187ZM7.26128 5.42372C6.15478 6.41991 6.58814 7.46388 8.10738 7.46388C8.91809 7.46388 9.58141 7.08965 9.58141 6.63136C9.58141 5.51573 8.04645 4.71682 7.26128 5.42372ZM18.0708 5.42372C16.9643 6.41991 17.3977 7.46388 18.9169 7.46388C19.7277 7.46388 20.391 7.08965 20.391 6.63136C20.391 5.51573 18.856 4.71682 18.0708 5.42372ZM12.5295 6.57916C12.5295 7.06576 13.1928 7.46388 14.0035 7.46388C14.8142 7.46388 15.4775 7.06576 15.4775 6.57916C15.4775 6.09257 14.8142 5.69444 14.0035 5.69444C13.1928 5.69444 12.5295 6.09257 12.5295 6.57916ZM12.5295 23.8312V29.5819H18.9169H25.3044V23.8312V18.0805H18.9169H12.5295V23.8312ZM32.1832 19.4076C32.1832 20.5976 33.7427 20.7577 43.2384 20.5427C57.8549 20.2118 57.8549 18.6034 43.2384 18.2725C33.7427 18.0575 32.1832 18.2177 32.1832 19.4076ZM22.3563 23.8312C22.3563 26.78 22.1922 26.9278 18.9169 26.9278C15.6416 26.9278 15.4775 26.78 15.4775 23.8312C15.4775 20.8825 15.6416 20.7347 18.9169 20.7347C22.1922 20.7347 22.3563 20.8825 22.3563 23.8312ZM32.4289 28.0337C32.7227 28.8273 35.8408 29.1396 43.4841 29.1396C51.1275 29.1396 54.2455 28.8273 54.5393 28.0337C54.8509 27.1914 52.2192 26.9278 43.4841 26.9278C34.749 26.9278 32.1174 27.1914 32.4289 28.0337ZM13.2036 35.4627C11.2019 37.2657 14.3573 37.5586 33.4116 37.3409C46.501 37.1914 54.2937 36.7721 54.2937 36.2174C54.2937 35.2105 14.2993 34.4762 13.2036 35.4627ZM12.7751 44.8434C13.3648 46.4359 47.0709 46.4359 47.6605 44.8434C47.9779 43.9861 44.0629 43.7375 30.2178 43.7375C16.3728 43.7375 12.4577 43.9861 12.7751 44.8434ZM68.5073 53.1394C69.4919 53.9711 69.5695 54.3541 68.7529 54.3541C66.8151 54.3541 67.3772 56.7978 70.1975 60.6348C72.3899 63.6181 72.5972 64.3586 71.4258 65.0257C69.2973 66.2386 69.1588 66.1599 65.743 61.7964C63.1634 58.5008 62.3026 57.9328 61.1725 58.7778C59.6228 59.9359 59.3339 59.2148 58.1969 51.3514L57.57 47.0225L62.3193 49.474C64.9313 50.8223 67.7162 52.4715 68.5073 53.1394ZM33.3546 54.4205C33.5482 54.9434 34.126 55.3716 34.6399 55.3716C35.1539 55.3716 35.7317 54.9434 35.9253 54.4205C36.1189 53.8976 35.5411 53.4694 34.6399 53.4694C33.7388 53.4694 33.161 53.8976 33.3546 54.4205Z" fill="white"/>
</svg>
