<svg width="64" height="57" viewBox="0 0 64 57" fill="none" xmlns="http://www.w3.org/2000/svg">
<path fill-rule="evenodd" clip-rule="evenodd" d="M36.2301 1.73852C34.3381 3.78046 36.1165 5.73835 41.2572 7.27245C51.4151 10.3044 59.1395 21.6262 57.5459 31.1458C56.8355 35.3854 54.0067 41.1989 51.3272 43.9283C49.8669 45.4146 49.6486 45.3748 47.055 43.1497C42.8272 39.5223 41.2394 40.7291 41.2394 47.5698C41.2394 56.1144 41.198 56.0746 50.1791 56.0746C54.4365 56.0746 58.1416 55.7526 58.4124 55.3597C58.6841 54.966 57.8867 53.4992 56.6408 52.1004L54.3743 49.556L57.5913 45.7826C62.3536 40.1956 64.3 34.1123 63.7477 26.5435C62.982 16.0489 56.7999 7.88291 45.9395 3.02313C39.0589 -0.0556978 38.0205 -0.19283 36.2301 1.73852ZM5.67044 2.23485C5.67044 2.83115 6.59623 4.20247 7.72851 5.28183L9.78755 7.24326L6.23856 11.8624C-2.55588 23.3098 -2.01246 36.3073 7.71863 47.3097C12.3653 52.5631 23.2069 57.668 26.9694 56.3754C27.7539 56.1056 28.3951 55.0059 28.3951 53.9309C28.3951 52.4004 27.2371 51.5466 23.0558 49.9948C12.9651 46.2498 6.65847 38.3058 6.65847 29.341C6.65847 23.3505 8.30354 18.7942 11.8634 14.9271L14.8137 11.7226L17.4596 13.9919C21.9047 17.806 22.5796 17.0991 22.2594 8.96316L21.9729 1.6642L13.8217 1.40763C7.88857 1.22007 5.67044 1.44568 5.67044 2.23485ZM35.5701 26.1905L27.4466 33.4655L23.5844 30.0885C19.5098 26.5258 16.3382 26.0825 15.7128 28.988C15.4816 30.0638 17.3519 32.4393 21.1054 35.8348C24.2651 38.6942 27.2589 41.0343 27.7558 41.0343C28.8703 41.0343 46.9917 25.2394 48.2377 23.1824C48.7317 22.3667 48.868 21.0723 48.54 20.3071C47.2565 17.3123 43.667 18.9411 35.5701 26.1905Z" fill="white"/>
</svg>
