<svg width="64" height="72" viewBox="0 0 64 72" fill="none" xmlns="http://www.w3.org/2000/svg">
<path fill-rule="evenodd" clip-rule="evenodd" d="M0.668457 35.8312V71.6625H24.8115H48.9546L56.1403 65.227L63.3261 58.7924V36.0312C63.3261 21.4474 62.969 13.2708 62.3315 13.2708C61.695 13.2708 61.3369 21.2333 61.3369 35.3889V57.5069H54.375H47.413V63.7168V69.9267L25.2839 69.6887L3.15487 69.4507V35.8312V2.2118H31.9973H60.8396L61.145 5.97187C61.5915 11.4554 63.3261 10.576 63.3261 4.86597V0H31.9973H0.668457V35.8312ZM6.8467 16.1462L7.13313 24.3299H31.9973H56.8614L57.1478 16.1462L57.4333 7.9625H31.9973H6.56126L6.8467 16.1462ZM54.375 15.925V22.118H31.9973H9.61954V15.925V9.73194H31.9973H54.375V15.925ZM7.33005 27.1043C6.94814 27.4432 6.63585 34.0246 6.63585 41.7297V55.7375H18.5955H30.5551L30.2816 41.3608L30.0081 26.984L19.0162 26.7354C12.9702 26.5992 7.71097 26.7646 7.33005 27.1043ZM34.1833 27.1043C33.8014 27.4432 33.4891 30.4415 33.4891 33.7672V39.8125H45.4677H57.4462L57.1538 33.3983L56.8614 26.984L45.8695 26.7354C39.8235 26.5992 34.5642 26.7646 34.1833 27.1043ZM28.5163 41.5819V53.968H19.0679H9.61954V41.5819V29.1958H19.0679H28.5163V41.5819ZM54.375 33.6194V38.043H44.9266H35.4782V33.6194V29.1958H44.9266H54.375V33.6194ZM33.4891 49.0738V55.7375H45.4677H57.4462L57.1538 49.3232L56.8614 42.909L45.1753 42.6595L33.4891 42.4109V49.0738ZM54.375 49.5444V53.968H44.9266H35.4782V49.5444V45.1208H44.9266H54.375V49.5444ZM58.3532 59.9028C58.3532 60.7751 51.1655 67.2389 50.1948 67.2389C49.239 67.2389 49.1247 60.7034 50.0655 59.8665C50.9537 59.0755 58.3532 59.1083 58.3532 59.9028Z" fill="white"/>
</svg>
