<svg width="49" height="62" viewBox="0 0 49 62" fill="none" xmlns="http://www.w3.org/2000/svg">
<path fill-rule="evenodd" clip-rule="evenodd" d="M22.2543 3.03454C22.2543 4.68632 21.4545 5.32155 18.307 6.17088C13.2109 7.54574 7.68152 11.949 5.4165 16.4372C3.93366 19.3771 3.62314 22.3542 3.60546 33.8238C3.58777 45.2968 3.33228 47.7502 2.10985 48.1731C1.29916 48.4526 0.635864 49.4904 0.635864 50.4795C0.635864 52.126 1.25297 52.2764 8.0058 52.2764C14.8117 52.2764 15.3757 52.4171 15.3757 54.114C15.3757 57.1486 20.5838 61.1236 24.5597 61.1236C28.5886 61.1236 33.7544 57.6803 34.228 54.6793C34.511 52.8895 35.1586 52.6958 41.6618 52.4586C48.4933 52.2092 48.7861 52.1101 48.7861 50.0257C48.7861 48.8304 48.3439 47.8528 47.8035 47.8528C47.1962 47.8528 46.8208 43.1876 46.8208 35.6277C46.8208 21.1006 45.4785 15.9931 40.4306 11.3138C38.5242 9.5461 34.7685 7.40153 32.0681 6.53804C28.1434 5.28262 27.1676 4.57131 27.1676 2.96642C27.1676 1.41904 26.6085 0.962524 24.711 0.962524C22.7899 0.962524 22.2543 1.41462 22.2543 3.03454ZM33.6198 12.0092C40.5809 15.6816 41.9075 19.3409 41.9075 34.8615V47.8528H25.2023H8.49713V33.8282C8.49713 20.7051 8.6406 19.6116 10.7317 16.8185C16.1117 9.63015 25.4087 7.67668 33.6198 12.0092ZM27.1676 15.5206C27.1676 16.2284 28.2731 17.8023 29.6243 19.0188C30.9754 20.2353 32.0809 22.0454 32.0809 23.0408C32.0809 24.4015 32.7167 24.85 34.6466 24.85C37.0777 24.85 37.177 24.6757 36.5324 21.5323C36.159 19.708 34.9267 17.3193 33.7957 16.224C31.4766 13.9803 27.1676 13.5229 27.1676 15.5206ZM29.1329 53.4265C29.1329 56.3196 23.9013 57.8289 21.4682 55.6383C19.0411 53.4531 20.176 52.2764 24.711 52.2764C27.6845 52.2764 29.1329 52.6533 29.1329 53.4265Z" fill="white"/>
</svg>
