<svg width="76" height="49" viewBox="0 0 76 49" fill="none" xmlns="http://www.w3.org/2000/svg">
<path fill-rule="evenodd" clip-rule="evenodd" d="M27.0658 2.16713C20.2403 4.05866 10.6859 10.2553 5.34316 16.2554C-1.2888 23.7039 -1.34579 24.4214 4.14629 31.3497C22.0906 53.9915 54.0142 53.9623 71.9861 31.2878C77.4231 24.4276 77.3622 23.6942 70.7391 16.2554C65.2362 10.0748 55.784 4.03566 48.6145 2.11847C42.4051 0.45873 33.1563 0.479964 27.0658 2.16713ZM52.3614 9.41654C58.7821 12.3485 69.4862 21.8141 69.4862 24.5603C69.4862 25.4229 67.0325 28.5699 64.0334 31.5532C48.7324 46.7757 27.3498 46.7757 12.0488 31.5532C9.04975 28.5699 6.59605 25.4796 6.59605 24.686C6.59605 22.506 16.006 13.4535 21.0244 10.8056C28.3953 6.91632 32.1059 6.02629 39.5151 6.37133C44.7753 6.61639 47.7979 7.33302 52.3614 9.41654ZM31.3767 12.8103C21.0234 17.5657 20.881 31.439 31.137 36.1502C36.1544 38.454 40.5449 38.385 45.3089 35.9264C54.4476 31.209 55.2877 19.4307 46.8703 14.0348C42.7304 11.3797 35.7004 10.825 31.3767 12.8103ZM44.0127 19.2838C47.6053 22.5184 47.793 26.2652 44.5326 29.6784C41.1797 33.1873 34.9025 33.1873 31.5497 29.6784C28.2892 26.2652 28.4769 22.5184 32.0695 19.2838C34.0299 17.5188 35.9264 16.6978 38.0411 16.6978C40.1558 16.6978 42.0523 17.5188 44.0127 19.2838Z" fill="white"/>
</svg>
