<svg width="73" height="70" viewBox="0 0 73 70" fill="none" xmlns="http://www.w3.org/2000/svg">
<path fill-rule="evenodd" clip-rule="evenodd" d="M56.072 1.37678C56.2963 1.98547 57.9058 2.68174 59.6487 2.92504L62.8183 3.3674L55.5751 9.79933L48.3328 16.2313L45.4735 13.5594C43.9015 12.0899 42.1359 10.8875 41.552 10.8875C40.065 10.8875 13.3438 34.9936 13.3438 36.3348C13.3438 38.9562 16.623 36.7285 28.6424 25.942L41.4423 14.4556L44.6988 17.2823L47.9564 20.1099L56.2588 12.7136C64.3448 5.51197 64.5701 5.38368 64.8882 7.81313C65.068 9.18622 65.7715 10.4717 66.4503 10.6717C67.3474 10.9353 67.6853 9.56222 67.6853 5.65264V0.270874H61.6751C57.3071 0.270874 55.7756 0.573449 56.072 1.37678ZM54.5939 20.6903C53.019 21.5122 52.8649 23.5975 52.8649 44.1088V66.625H48.4188H43.9726V53.8275C43.9726 39.4826 43.8284 39.1986 36.5624 39.1986C29.2965 39.1986 29.1522 39.4826 29.1522 53.8275V66.625H24.7061H20.26V59.7242C20.26 55.5368 19.7936 52.4058 19.0743 51.7617C18.4222 51.1778 15.558 50.7 12.7085 50.7C5.88911 50.7 4.45153 52.4182 4.45153 60.5673C4.45153 66.0482 4.28159 66.5233 2.22846 66.7843C1.00529 66.94 0.00540161 67.4655 0.00540161 67.9521C0.00540161 68.5219 12.9407 68.9191 36.3154 69.0686C68.1783 69.273 72.6255 69.1367 72.6255 67.9627C72.6255 67.1258 71.7017 66.625 70.1554 66.625H67.6853V44.0956C67.6853 22.7269 67.5865 21.5192 65.7745 20.6504C63.3479 19.4879 56.8555 19.5109 54.5939 20.6903ZM64.7212 44.507V66.625H60.2751H55.829V45.0971C55.829 33.256 56.1254 23.3028 56.488 22.979C56.8496 22.6543 58.8504 22.3889 60.9341 22.3889H64.7212V44.507ZM8.40364 41.4104C8.40364 42.1403 8.84825 42.7375 9.39167 42.7375C9.93508 42.7375 10.3797 42.1403 10.3797 41.4104C10.3797 40.6805 9.93508 40.0834 9.39167 40.0834C8.84825 40.0834 8.40364 40.6805 8.40364 41.4104ZM41.0086 54.2389V66.625H36.5624H32.1163V54.2389V41.8528H36.5624H41.0086V54.2389ZM17.2959 59.9896V66.625H12.8498H8.40364V59.9896V53.3542H12.8498H17.2959V59.9896Z" fill="white"/>
</svg>
